# xmcd
#
# Track frame offsets:
#	150
#	20092
#	37546
#	54657
#	77075
#	98220
#	113197
#	134206
#	155770
#	175400
#	195474
#	217365
#	235188
#	255169
#	277462
#
# Disc length: 3933 seconds
# Revision: 0
# Processed by: cddbd v1.5.2PL0 Copyright (c) Steve Scherf et al.
# Submitted via: dBpowerAMP V12.0
#
DISCID=de0f5b0f
DTITLE=Various Artist - WOW #1s 2011
DYEAR=2011
DGENRE=Gospel
TTITLE0=Mercy Me - God With Us
TTITLE1=Brandon Heath - Give Me Your Eyes
TTITLE2=Matthew West - The Motions
TTITLE3=Casting Crowns - Praise You In This Storm
TTITLE4=Third Day - Cry Out To Jesus
TTITLE5=Sidewalk Prophets - The Words I Would Say
TTITLE6=Jeremy Camp - There Will Be A Day
TTITLE7=Phillips, Craig and Dean - Revelation Song
TTITLE8=Natalie Grant - Held
TTITLE9=Chris Tomlin - How Great Is Our God
TTITLE10=Aaron Shust - My Savior My God
TTITLE11=Mark Schultz - I Am
TTITLE12=Steven Curtis Chapman - Cinderella
TTITLE13=Michael W. Smith - Here I Am To Worship
TTITLE14=Kutless - What Faith Can Do
EXTD=
EXTT0=
EXTT1=
EXTT2=
EXTT3=
EXTT4=
EXTT5=
EXTT6=
EXTT7=
EXTT8=
EXTT9=
EXTT10=
EXTT11=
EXTT12=
EXTT13=
EXTT14=
PLAYORDER=
